<?xml version="1.0" encoding="utf-8"?>
<!-- Generator: Adobe Illustrator 21.0.0, SVG Export Plug-In . SVG Version: 6.00 Build 0)  -->
<svg version="1.1" id="Capa_1" xmlns="http://www.w3.org/2000/svg" xmlns:xlink="http://www.w3.org/1999/xlink" x="0px" y="0px"
	 viewBox="0 0 761 274" style="enable-background:new 0 0 761 274;" xml:space="preserve">
<style type="text/css">
	.st0{display:none;}
	.st1{fill:#E94F1B;}
	.st2{fill:#365687;}
	.st3{fill:none;stroke:#FFFFFF;stroke-width:3;stroke-linecap:round;stroke-miterlimit:10;}
	.st4{fill:#FFFFFF;}
	.st5{fill:none;stroke:#FFFFFF;stroke-miterlimit:10;}
	.st6{fill:#FFFFFF;stroke:#FFFFFF;stroke-miterlimit:10;}
	.st7{fill:none;stroke:#FFFFFF;stroke-linecap:round;stroke-miterlimit:10;}
	.st8{fill:#EA4E1B;}
</style>
<g id="Capa_1_1_" class="st0">
	
		<image style="display:inline;overflow:visible;enable-background:new    ;" width="778" height="289" xlink:href="C:\xampp\htdocs\jose\juegodinero\imagenes\logo_juegodinero.png"  transform="matrix(1 0 0 1 -6.5 -6.5)">
	</image>
</g>
<g id="Capa_2">
	<polygon class="st1" points="685,66.2 539.3,66.2 522.7,122.6 657.7,122.6 	"/>
	<circle class="st2" cx="533.2" cy="94.6" r="18"/>
	<path class="st3" d="M221,102c0,0,11-16,11-40S214.5,3.5,155.5,3.5S47.6,44,49,79c1.2,29,31.6,34.6,50.3,34.2
		c31.2,2.8,140.2-46.4,148.4-88.6c0.5-6.8-3-10.6-13-10.5C214.5,14.4,110.2,64.8,106.5,130c-2,36.4,22.3,44.6,35.3,44.4
		c40.7-0.5,111.9-95,112.7-96.1c-1.3-2.1-31.1,35.9-45.3,59.7C184.8,178.8,150,270,64,270c-34.5,0-56-22.3-56-58
		c0-23,36.7-84.2,98.7-84.2c36.2,0,45,27.3,43.8,45.4C149.6,186,130,226,102,226c-10,0-18.8-6.8-18.8-17.8s9-18.5,15.7-18"/>
	<g>
		<path class="st4" d="M265.6,33.8h2.6l-0.1,5.8H252v-2.2l2.9-0.8l-0.6,0.9V20.1l0.6,0.9l-2.9-0.8V18l6.6-0.2h9.2v5.6h-2.6l-0.6-3
			l0.8,0.6h-7.3l0.7-0.7v7.3l-0.7-0.7h7.3V30h-7.3l0.7-0.8V37l-0.7-0.7h7.7L265,37L265.6,33.8z"/>
	</g>
	<g>
		<path class="st4" d="M305.2,36.5l-0.3-0.4l2.4,0.7V39h-8.5v-2.2l2.4-0.7l-0.3,0.4V17.7l0.3,0.3l-2.3-0.7v-2.2l6.4-0.2v21.6H305.2z
			"/>
	</g>
	<g>
		<path class="st4" d="M337.5,18l9.2-0.2V20l-2.8,1l0.5-0.9v16.2c0,1.3-0.1,2.5-0.3,3.5c-0.2,1-0.6,1.9-1.1,2.7
			c-0.5,0.7-1.2,1.3-2,1.7s-1.9,0.6-3.2,0.6c-0.4,0-0.7,0-1.1,0s-0.8-0.1-1.2-0.1l0.4-3.2c0.2,0,0.4,0,0.6,0.1c0.2,0,0.3,0,0.5,0
			c1.1,0,1.9-0.3,2.4-1s0.7-1.8,0.7-3.2V20.1l0.5,0.8l-3-0.7V18H337.5z"/>
	</g>
	<g>
		<path class="st4" d="M384.6,39.4c-1.4,0-2.5-0.4-3.5-1.3s-1.4-2.3-1.4-4.1v-9.1l0.4,0.6l-2.4-0.7v-2.2l6.4-0.2v10.9
			c0,1,0.2,1.7,0.7,2.2c0.4,0.5,1,0.7,1.7,0.7c0.6,0,1.2-0.1,1.8-0.4c0.7-0.3,1.3-0.8,2-1.4L390,35V24.8l0.4,0.7l-2.4-0.7v-2.2
			l6.4-0.2v14.4l-0.5-0.7l2.6,0.8V39l-5.5,0.2l-0.6-3l0.6,0.2c-1,1-2.1,1.7-3.2,2.2C386.7,39.1,385.6,39.4,384.6,39.4z"/>
	</g>
	<g>
		<path class="st4" d="M434.1,39.5c-1.5,0-2.8-0.3-4-0.9c-1.1-0.6-2-1.6-2.7-2.8c-0.6-1.3-0.9-2.8-0.9-4.6c0-1.9,0.3-3.5,1-4.8
			s1.6-2.4,2.8-3.1c1.2-0.7,2.7-1.1,4.3-1.1c1.6,0,2.9,0.3,3.9,1s1.8,1.5,2.2,2.6c0.5,1.1,0.7,2.4,0.7,3.7c0,0.4,0,0.7,0,1.1
			s-0.1,0.7-0.1,1.1H430v-2.6h7.6l-0.6,0.4c0-0.8-0.1-1.6-0.2-2.2c-0.2-0.6-0.5-1.1-0.9-1.5s-1-0.5-1.7-0.5c-0.8,0-1.5,0.2-2,0.7
			s-0.9,1.1-1.1,1.9s-0.3,1.7-0.3,2.6c0,1.1,0.1,2.1,0.4,2.9c0.3,0.9,0.7,1.6,1.3,2c0.6,0.5,1.4,0.7,2.4,0.7c0.7,0,1.5-0.1,2.3-0.4
			c0.8-0.3,1.7-0.6,2.6-1.2l1.5,2.3c-1.2,0.8-2.4,1.4-3.7,1.8C436.5,39.3,435.3,39.5,434.1,39.5z"/>
	</g>
	<g>
		<path class="st4" d="M481.9,46.5c-2.6,0-4.5-0.3-5.8-1s-1.9-1.7-1.9-3c0-1,0.4-1.9,1.1-2.6c0.7-0.7,1.8-1.3,3.1-1.7l-0.1,0.9
			c-0.8-0.1-1.4-0.3-1.9-0.6c-0.5-0.4-0.7-0.8-0.7-1.4c0-0.2,0-0.4,0.1-0.6c0.1-0.2,0.2-0.5,0.3-0.8c0.2-0.3,0.4-0.7,0.7-1.2
			c0.3-0.5,0.7-1.1,1.1-1.8l0.1,0.7c-1-0.5-1.8-1.1-2.4-2c-0.5-0.9-0.8-1.9-0.8-3.1c0-1.9,0.7-3.4,2-4.5s3.1-1.6,5.5-1.6
			c1.7,0,3.1,0.3,4.3,0.9l-1-0.2l5.2-0.2V25l-2.4,0.5l0.3-0.5c0.3,0.4,0.5,0.8,0.7,1.3s0.2,1.1,0.2,1.7c0,1.9-0.7,3.4-2,4.5
			s-3.2,1.7-5.4,1.7c-1.1,0-2.1-0.1-3.1-0.4l0.7-0.4l-0.5,3.3l-0.7-0.3h6.2c2.1,0,3.7,0.4,4.7,1.2c1.1,0.8,1.6,2,1.6,3.5
			c0,1.8-0.8,3.1-2.3,4.1C487.3,46,485,46.5,481.9,46.5z M482.3,43.5c1.7,0,2.8-0.2,3.6-0.5c0.7-0.4,1.1-0.9,1.1-1.5
			c0-0.7-0.2-1.1-0.7-1.5s-1.2-0.5-2.1-0.5h-5.4l1-0.2c-1.1,0.7-1.7,1.5-1.7,2.4c0,0.6,0.3,1.1,1,1.4S480.8,43.5,482.3,43.5z
			 M482.1,31.2c1,0,1.8-0.3,2.3-0.8s0.8-1.3,0.8-2.4s-0.2-1.8-0.7-2.3s-1.2-0.7-2.2-0.7s-1.8,0.3-2.3,0.8s-0.8,1.3-0.8,2.3
			s0.2,1.8,0.7,2.3C480.4,31,481.2,31.2,482.1,31.2z"/>
	</g>
	<g>
		<path class="st4" d="M529.5,22.1c2.4,0,4.3,0.7,5.7,2.2c1.4,1.4,2,3.5,2,6.2c0,1.9-0.3,3.5-1,4.8s-1.6,2.4-2.9,3.1
			c-1.2,0.7-2.7,1.1-4.5,1.1c-2.4,0-4.3-0.7-5.7-2.2c-1.3-1.4-2-3.5-2-6.2c0-1.9,0.3-3.5,1-4.8s1.6-2.4,2.8-3.1
			C526.3,22.4,527.7,22.1,529.5,22.1z M529.3,25.2c-1.2,0-2.1,0.5-2.6,1.4c-0.6,0.9-0.9,2.3-0.9,4.3s0.3,3.3,0.8,4.2
			c0.6,0.9,1.4,1.3,2.5,1.3c0.8,0,1.5-0.2,2-0.6c0.5-0.4,0.9-1,1.2-1.9c0.3-0.8,0.4-1.9,0.4-3.1c0-1.9-0.3-3.3-0.9-4.1
			S530.4,25.2,529.3,25.2z"/>
	</g>
	<g>
		<path class="st4" d="M190.6,62.1c4.6,0,8.6,0.6,12.2,1.9c3.5,1.3,6.5,3.2,9,5.7c2.4,2.5,4.3,5.6,5.6,9.4c1.3,3.7,1.9,8.1,1.9,13
			c0,7-1.2,13-3.7,17.7c-2.5,4.8-6,8.4-10.6,10.9s-10,3.7-16.4,3.7h-26.4v-7.6l7.9-2.6l-2,2.9V69.7l2.1,3.1l-8-2.7v-7.6l21.6-0.4
			H190.6z M189.4,113.4c1.5,0,3.1-0.2,4.7-0.6c1.6-0.4,3-1.2,4.4-2.6c1.3-1.3,2.4-3.4,3.3-6.1c0.8-2.8,1.2-6.5,1.2-11.3
			c0-4.6-0.4-8.2-1.2-10.9c-0.8-2.7-1.8-4.7-3.1-5.9c-1.3-1.3-2.6-2.1-4.1-2.5s-2.9-0.6-4.3-0.6h-9.1l2.3-2.3v45l-2.3-2.3h8.2V113.4
			z"/>
		<path class="st4" d="M251.8,69.6l-7.4,3l1.5-2.2v45.8l-1.5-2.1l7.4,2.6v7.6h-27.1v-7.6l7.2-2.5l-1.3,2V70.4l1.8,2.3l-7.7-2.6v-7.6
			l27.1-0.4V69.6z"/>
		<path class="st4" d="M298.5,62.5l24.4-0.4v7.6l-7.9,3.1l2-3.1v54.6h-17.6l-23-46.1h2.1V117l-2.2-3l8.1,2.7v7.6H260v-7.6l8.1-2.7
			l-2.2,3V69.7l1.4,2.7L260,70v-7.6l24-0.4l22.5,45.1h-2.2V69.7l2.2,3l-8.1-2.6v-7.6H298.5z"/>
		<path class="st4" d="M367.3,106.8h9.1l-0.2,17.5h-46.6v-7.6l7.8-2.6l-1.9,2.9V69.7l1.8,2.9l-7.7-2.6v-7.6l20.9-0.4h24.8v16.8h-9.1
			l-1.8-7.9l2.7,2h-18.6l2.3-2.3v19l-2.3-2.3h19.6V98h-19.6l2.3-2.7v20.4l-2.3-2.3h19.6l-2.8,2.3L367.3,106.8z"/>
		<path class="st4" d="M386.6,124.3v-7.6l7.7-2.6l-1.8,2.9V69.8l2.6,3.1l-8.5-2.8v-7.6l21.8-0.4h7.7c7.3,0,12.8,1.5,16.5,4.5
			s5.5,7.3,5.5,13c0,5-1.5,9.1-4.5,12.5c-3,3.3-7.8,5.4-14.5,6.2l0.1-1.8c2.3,0,4.2,0.3,5.7,0.9s2.7,1.4,3.7,2.4s1.8,2.3,2.6,3.7
			l6.8,12.8l-4.2-2.7l8.4,3.1v7.6H426l-7.9-16.7c-0.9-2.2-1.7-3.8-2.4-4.9c-0.7-1.1-1.5-1.8-2.3-2.2c-0.9-0.4-2.2-0.5-4-0.4
			l-3.9,0.1l2.5-2.1v19l-1.9-2.9l8.2,2.6v7.6L386.6,124.3L386.6,124.3z M407.8,93.3l-2.5-3.8h6.7c3.5,0,6.1-0.7,7.9-2.2
			c1.7-1.5,2.6-3.7,2.6-6.6c0-2.4-0.7-4.3-2-5.7c-1.4-1.4-3.5-2.1-6.3-2.1h-8.8l2.5-2.3v22.7H407.8z"/>
		<path class="st4" d="M473.6,125.4c-5.9,0-10.9-1.2-15-3.6s-7.3-5.9-9.5-10.6s-3.3-10.4-3.3-17.2c0-5.5,0.7-10.3,2.1-14.5
			c1.4-4.1,3.4-7.6,6-10.4s5.7-4.9,9.4-6.2c3.6-1.4,7.7-2.1,12.3-2.1c4.5,0,8.4,0.7,12,2c3.5,1.4,6.5,3.3,9,6
			c2.5,2.6,4.3,5.9,5.6,9.8c1.3,3.9,1.9,8.3,1.9,13.2c0,6.9-1.2,12.9-3.7,17.9s-6,8.9-10.6,11.6
			C485.3,124.1,479.8,125.4,473.6,125.4z M474.6,113.8c2.6,0,4.8-0.6,6.8-1.9c1.9-1.3,3.5-3.4,4.6-6.5s1.7-7.3,1.7-12.8
			c0-5-0.5-9-1.5-12c-1-2.9-2.4-5-4.3-6.2s-4.2-1.8-7-1.8c-2.6,0-4.8,0.6-6.7,1.8c-1.9,1.2-3.4,3.3-4.4,6.4s-1.5,7.3-1.5,12.8
			c0,4.9,0.5,8.9,1.4,11.8c0.9,3,2.3,5.1,4.1,6.4C469.6,113.2,471.9,113.8,474.6,113.8z"/>
	</g>
	<g>
		<path class="st4" d="M526.8,104.5l0.3-2.7c0.3,0,0.5,0.1,0.8,0.1c0.2,0,0.5,0,0.7,0c0.6,0,1.1-0.1,1.5-0.3
			c0.4-0.2,0.8-0.6,1.1-1.1s0.6-1.2,0.9-2l-0.2,1.3l-4.5-10.9l0.3,0.3l-1.3-0.4v-2l6.1-0.2v2l-1.4,0.5l0.2-0.3l2.7,8.1l-0.9-0.2
			l2.3-7.8l0.2,0.3l-1.4-0.4v-2l5.7-0.2v2l-1.4,0.5l0.5-0.3L535.3,99c-0.3,0.9-0.7,1.7-1.1,2.4c-0.4,0.7-0.9,1.3-1.4,1.8
			s-1.1,0.8-1.8,1.1c-0.7,0.2-1.4,0.4-2.3,0.4C528.2,104.7,527.5,104.7,526.8,104.5z"/>
	</g>
	<g>
		<path class="st4" d="M569,107.1c-1.7,0-3.3-0.4-4.8-1.3s-2.6-2.1-3.5-3.8s-1.3-3.8-1.3-6.3c0-2.4,0.4-4.5,1.3-6.3
			c0.9-1.7,2.1-3.1,3.6-4s3.4-1.4,5.5-1.4c1.1,0,2.3,0.1,3.5,0.4s2.4,0.7,3.8,1.3l-0.3,6h-3.2l-0.9-3.6l0.9,0.8
			c-0.7-0.3-1.3-0.4-1.9-0.6c-0.6-0.1-1.1-0.2-1.6-0.2c-1.1,0-2,0.3-2.6,0.8c-0.7,0.5-1.2,1.3-1.5,2.4c-0.3,1-0.5,2.3-0.5,3.7
			c0,1.7,0.2,3.2,0.6,4.3c0.4,1.1,1,2,1.8,2.5s1.7,0.8,2.7,0.8c0.8,0,1.6-0.2,2.4-0.5s1.7-0.8,2.6-1.4l2,3.1
			c-1.3,1.1-2.7,1.9-4.2,2.4S570.4,107.1,569,107.1z"/>
		<path class="st4" d="M588.4,107.1c-2.1,0-3.9-0.4-5.4-1.3s-2.6-2.1-3.4-3.8c-0.8-1.7-1.2-3.7-1.2-6.2c0-2,0.3-3.7,0.8-5.2
			s1.2-2.7,2.2-3.7c0.9-1,2.1-1.7,3.4-2.2c1.3-0.5,2.8-0.7,4.4-0.7c1.6,0,3,0.2,4.3,0.7s2.3,1.2,3.2,2.1s1.6,2.1,2,3.5
			c0.5,1.4,0.7,3,0.7,4.7c0,2.5-0.4,4.6-1.3,6.4c-0.9,1.8-2.2,3.2-3.8,4.1C592.6,106.6,590.7,107.1,588.4,107.1z M588.8,102.9
			c0.9,0,1.7-0.2,2.4-0.7s1.2-1.2,1.6-2.3s0.6-2.6,0.6-4.6c0-1.8-0.2-3.2-0.5-4.3c-0.4-1.1-0.9-1.8-1.5-2.2
			c-0.7-0.4-1.5-0.7-2.5-0.7c-0.9,0-1.7,0.2-2.4,0.6s-1.2,1.2-1.6,2.3c-0.4,1.1-0.6,2.6-0.6,4.6c0,1.8,0.2,3.2,0.5,4.2
			c0.3,1.1,0.8,1.8,1.5,2.3C587,102.7,587.8,102.9,588.8,102.9z"/>
		<path class="st4" d="M626.6,87.1l-2.8,1.1l0.7-1.4V104l-0.7-1l2.8,0.9v2.7h-9.2V104l3-1l-0.9,1.1v-14h0.9l-5.1,10.7l-3.4,0.2
			L607,90.1h0.8V104l-0.6-1l2.7,0.9v2.7h-8.6V104l2.8-0.9l-0.7,1V86.8l0.7,1.4l-2.8-0.9v-2.7l8.8-0.2l4.4,11.2h-0.6l4.7-11l8.1-0.2
			v2.7H626.6z"/>
		<path class="st4" d="M638.6,107.1c-2.1,0-3.9-0.4-5.4-1.3s-2.6-2.1-3.4-3.8c-0.8-1.7-1.2-3.7-1.2-6.2c0-2,0.3-3.7,0.8-5.2
			s1.2-2.7,2.2-3.7c0.9-1,2.1-1.7,3.4-2.2c1.3-0.5,2.8-0.7,4.4-0.7c1.6,0,3,0.2,4.3,0.7s2.3,1.2,3.2,2.1s1.6,2.1,2,3.5
			c0.5,1.4,0.7,3,0.7,4.7c0,2.5-0.4,4.6-1.3,6.4c-0.9,1.8-2.2,3.2-3.8,4.1C642.8,106.6,640.8,107.1,638.6,107.1z M639,102.9
			c0.9,0,1.7-0.2,2.4-0.7s1.2-1.2,1.6-2.3s0.6-2.6,0.6-4.6c0-1.8-0.2-3.2-0.5-4.3c-0.4-1.1-0.9-1.8-1.5-2.2
			c-0.7-0.4-1.5-0.7-2.5-0.7c-0.9,0-1.7,0.2-2.4,0.6s-1.2,1.2-1.6,2.3c-0.4,1.1-0.6,2.6-0.6,4.6c0,1.8,0.2,3.2,0.5,4.2
			c0.3,1.1,0.8,1.8,1.5,2.3C637.1,102.7,638,102.9,639,102.9z"/>
	</g>
	<path class="st5" d="M725.5,135c0,0,10.9-1.2,10.9,12c0,22-29.3,66.5-53.9,66.5"/>
	<path class="st6" d="M682.7,213.6c-3,0-8-2.9-8-11.9c0-18.9,30.6-66.8,50.8-66.8c-24.3,0-62.5,31.9-62.5,54.9
		C663,210.1,680.3,215,682.7,213.6z"/>
	<path class="st7" d="M758.3,165.3c0,0-13.8,24.2-32.8,24.2c-3.9,0-5.9-2.2-5.9-2.2"/>
	<path class="st6" d="M733.8,160.5c0,0,0.2-5.1-3.4-5.1c-6.7,0-16.8,12.6-16.8,22c0,6.7,5.9,9.5,5.9,9.5S734.4,164.5,733.8,160.5z"
		/>
	<path class="st5" d="M626,213.5c17.9,0,37-35.3,48.8-49.3"/>
	<path class="st6" d="M684.8,65.5c2.7,1.7,10.3,2.7,16.3,0.3c-19.7,34.2-79.2,126.4-79.3,139.9c0.4,5.1,2.2,7.8,4.3,7.8
		c0,0.3-13.7,0-13.7-16.3c0-13.1,20.4-40.7,38.3-72.4C667.9,94.3,676.6,79.8,684.8,65.5z"/>
	<path class="st6" d="M537.5,213.5c0,0,15.5-1.7,17.2,0c9.3-15,32.8-51.3,32.8-65.1c0-10.4-5.4-14.6-10.8-14.1
		c2.6,0.4,2.4,2.6,2.3,4.2C577.6,152.6,548,197.7,537.5,213.5z"/>
	<path class="st5" d="M624.9,167.7c0,0-11.5,21.6-26.6,21.1c-9.1-0.3-10.3-7.7-10.3-12s3.3-17.1,8.9-23.9"/>
	<path class="st5" d="M570.8,187.1c0,0,11.5-18.6,26.2-27.4"/>
	<path class="st6" d="M617.8,134.3c0,0,4.6-0.9,4.6,3.2c0,6.6-21.1,20.9-32,26.9C597,151.3,606.1,134.5,617.8,134.3z"/>
	<path class="st6" d="M514.8,134.9c0,0,8.7,3.4,16.8,0c0,0-38.5,60.4-38.5,70.6c0,6.7,2.2,7.7,5.3,8c-3.5,1.3-15.1-0.6-15.1-15.6
		s15.6-32.4,23.3-51.9c0.3-0.6,3.7,0,4-0.7C512.5,141.1,513.2,137.8,514.8,134.9z"/>
	<path class="st5" d="M576.7,134.3c-16.7,0-55.4,79.2-78.3,79.2"/>
	<path class="st6" d="M500,134.9c-10-3.5-66.4,24.1-66.4,55.9c0,25.2,18.8,24.5,19.3,22.8c-5.6,0-8.3-2.8-8.9-10.9
		C444,181.1,483.9,134.3,500,134.9z"/>
	<path class="st5" d="M500,134.9c0,0,7.4,0.8,7.4,7.2s-2.3,9-2.3,9"/>
	<path class="st5" d="M452.9,213.5c4.4,0,16.2-5.2,42-45"/>
	<path class="st6" d="M299.7,134.9c0,0,8.7,3.4,16.8,0c0,0-38.5,60.4-38.5,70.6c0,6.7,2.2,7.7,5.3,8c-3.5,1.3-15.1-0.6-15.1-15.6
		s15.6-32.4,23.3-51.9c0.3-0.6,3.7,0,4-0.7C297.3,141.1,298,137.8,299.7,134.9z"/>
	<path class="st5" d="M361.5,134.3c-16.7,0-55.4,79.2-78.3,79.2"/>
	<path class="st6" d="M284.8,134.9c-10-3.5-66.4,24.1-66.4,55.9c0,25.2,19.1,23.7,19.3,22.8c-5.6,0-8.3-2.8-8.9-10.9
		C228.8,181.1,268.7,134.3,284.8,134.9z"/>
	<path class="st5" d="M284.8,134.9c0,0,7.4,0.8,7.4,7.2s-2.3,9-2.3,9"/>
	<path class="st5" d="M237.8,213.5c4.4,0,16.2-5.2,42-45"/>
	<path class="st6" d="M402.9,134.6c9-0.9,15.6,7,15.6,15.6c0,16.7-26,44-26,56c0,6.6,3.8,7.5,5.6,7.5c-0.5,1.2-16.2,0.4-16.2-17
		c0-15.4,28.4-45.7,28.4-55.4C410.4,136.6,406.7,134.6,402.9,134.6z"/>
	<path class="st6" d="M359.8,134.9c4.3-1.9,11.9,4.4,11.9,13.1c0,14.6-27.8,56.1-31.8,65.9c-6.1-1.9-9.5-1.7-17.3-0.5
		c11.9-20.6,40.5-58.8,41-73.6C363.6,138.3,363.3,135.3,359.8,134.9z"/>
	<path class="st5" d="M402.9,134.6c-15.1-0.1-40.8,39.8-49.9,52.1"/>
	<path class="st5" d="M398.1,213.6c13.2-0.1,35.1-31.3,42.5-42.8"/>
	<path class="st6" d="M91.2,201.7c0,4.6,4.7,6.7,7.4,6.7c3.8,0,10.9-3.8,10.9-11.2c0-6.6-6.9-8.6-10.2-8.6
		C93.3,188.6,91.2,194.9,91.2,201.7z"/>
	<circle class="st1" cx="235.3" cy="30.3" r="3.2"/>
	<circle class="st1" cx="283.5" cy="30.3" r="3.2"/>
	<circle class="st1" cx="361.6" cy="30.3" r="3.2"/>
	<circle class="st1" cx="411.5" cy="30.3" r="3.2"/>
	<circle class="st1" cx="458.8" cy="30.3" r="3.2"/>
	<circle class="st1" cx="506.2" cy="30.3" r="3.2"/>
	<circle class="st1" cx="555.7" cy="30.3" r="3.2"/>
	<circle class="st1" cx="323.5" cy="30.3" r="3.2"/>
	<path class="st6" d="M112.2,143c-0.8-32.1,51.3-99.7,114-127.3c-66.2,17.8-121.5,67.8-124,110.1c-1.6,27.6,11.7,54.8,45.7,48
		C129.8,173,112.8,167.1,112.2,143z"/>
	<path class="st6" d="M12.2,220.8c-2.3-50.5,58.7-93.1,94.5-93C28.3,125.2,3.8,187.7,3.8,214.2C3.8,237.8,18.5,270,65,270
		C38.8,269,12.2,249.3,12.2,220.8z"/>
	<path class="st6" d="M216.6,123.1c-19.1,40.7-19.8,64.9-37.3,93.7c-14.5,29.3-75.1,59.8-113,53.2c56.3-2.7,89.8-54.6,100.2-71.5
		S204.2,144.8,216.6,123.1z"/>
	<path class="st3" d="M255.6,77.6c1.4,0-7.9,13.2-13.3,16.7C240.3,93.7,250.6,77.6,255.6,77.6z"/>
	<circle class="st8" cx="129" cy="92.7" r="22.7"/>
	<g>
		<path class="st4" d="M119.2,85.2c0.9,0,1.7,0.1,2.4,0.4c0.7,0.2,1.3,0.6,1.8,1.1s0.8,1.1,1.1,1.8c0.3,0.7,0.4,1.6,0.4,2.5
			c0,1.4-0.2,2.5-0.7,3.5c-0.5,0.9-1.2,1.6-2.1,2.1s-2,0.7-3.2,0.7h-5.1v-1.5l1.5-0.5l-0.4,0.6v-9.2l0.4,0.6l-1.6-0.5v-1.5l4.2-0.1
			H119.2z M119,95.2c0.3,0,0.6,0,0.9-0.1s0.6-0.2,0.9-0.5s0.5-0.7,0.6-1.2c0.2-0.5,0.2-1.3,0.2-2.2c0-0.9-0.1-1.6-0.2-2.1
			c-0.2-0.5-0.4-0.9-0.6-1.2c-0.2-0.2-0.5-0.4-0.8-0.5s-0.6-0.1-0.8-0.1h-1.8l0.4-0.4v8.8l-0.4-0.4h1.6V95.2z"/>
		<path class="st4" d="M133.2,93.9h1.8v3.4h-9.1v-1.5l1.5-0.5l-0.4,0.6v-9.2l0.4,0.6l-1.5-0.5v-1.5l4.1-0.1h4.8v3.3H133l-0.4-1.5
			l0.5,0.4h-3.6l0.4-0.4v3.7l-0.4-0.4h3.8v2.1h-3.8l0.4-0.5v4l-0.4-0.4h3.8l-0.5,0.4L133.2,93.9z"/>
		<path class="st4" d="M143.2,93.4h1.8v3.9h-8.8v-1.5l1.5-0.5l-0.3,0.5v-9.2l0.3,0.5l-1.5-0.5v-1.5l5.4-0.1v1.5l-1.5,0.6l0.3-0.5v9
			l-0.4-0.4h3.3l-0.4,0.5L143.2,93.4z"/>
	</g>
</g>
</svg>
